<?xml version="1.0" encoding="UTF-8" standalone="no"?>
<svg width="16px" height="19px" viewBox="0 0 16 19" version="1.1" xmlns="http://www.w3.org/2000/svg" xmlns:xlink="http://www.w3.org/1999/xlink">
    <!-- Generator: Sketch 39.1 (31720) - http://www.bohemiancoding.com/sketch -->
    <title>icon-calendar</title>
    <desc>Created with Sketch.</desc>
    <defs></defs>
    <g id="TX--History" stroke="none" stroke-width="1" fill="none" fill-rule="evenodd">
        <g id="Collapsed-Nav-Copy-3" transform="translate(-1010.000000, -437.000000)" fill="#47494D">
            <g id="Group-23" transform="translate(998.000000, 120.000000)">
                <g id="icon-calendar" transform="translate(12.000000, 317.000000)">
                    <path d="M3.2,8.40625 L4.26666667,8.40625 L4.26666667,9.5 L3.2,9.5 L3.2,8.40625 Z M3.73333333,10.59375 C4.61706667,10.59375 5.33333333,9.85929687 5.33333333,8.953125 C5.33333333,8.04695313 4.61706667,7.3125 3.73333333,7.3125 C2.8496,7.3125 2.13333333,8.04695313 2.13333333,8.953125 C2.13333333,9.85929687 2.8496,10.59375 3.73333333,10.59375 L3.73333333,10.59375 Z M3.2,12.78125 L4.26666667,12.78125 L4.26666667,13.875 L3.2,13.875 L3.2,12.78125 Z M3.73333333,14.96875 C4.61706667,14.96875 5.33333333,14.2342969 5.33333333,13.328125 C5.33333333,12.4219531 4.61706667,11.6875 3.73333333,11.6875 C2.8496,11.6875 2.13333333,12.4219531 2.13333333,13.328125 C2.13333333,14.2342969 2.8496,14.96875 3.73333333,14.96875 L3.73333333,14.96875 Z M7.46666667,8.40625 L8.53333333,8.40625 L8.53333333,9.5 L7.46666667,9.5 L7.46666667,8.40625 Z M8,10.59375 C8.88373333,10.59375 9.6,9.85929687 9.6,8.953125 C9.6,8.04695313 8.88373333,7.3125 8,7.3125 C7.11626667,7.3125 6.4,8.04695313 6.4,8.953125 C6.4,9.85929687 7.11626667,10.59375 8,10.59375 L8,10.59375 Z M14.9333333,4.03125 L1.06666667,4.03125 L1.06666667,2.9375 C1.06666667,2.33375 1.54453333,1.84375 2.13333333,1.84375 L13.8666667,1.84375 C14.4554667,1.84375 14.9333333,2.33375 14.9333333,2.9375 L14.9333333,4.03125 L14.9333333,4.03125 Z M14.9333333,16.0625 C14.9333333,16.66625 14.4554667,17.15625 13.8666667,17.15625 L2.13333333,17.15625 C1.54453333,17.15625 1.06666667,16.66625 1.06666667,16.0625 L1.06666667,5.125 L14.9333333,5.125 L14.9333333,16.0625 L14.9333333,16.0625 Z M13.8666667,0.75 L2.13333333,0.75 C0.9552,0.75 0,1.72945312 0,2.9375 L0,16.0625 C0,17.2705469 0.9552,18.25 2.13333333,18.25 L13.8666667,18.25 C15.0448,18.25 16,17.2705469 16,16.0625 L16,2.9375 C16,1.72945312 15.0448,0.75 13.8666667,0.75 L13.8666667,0.75 Z M7.46666667,12.78125 L8.53333333,12.78125 L8.53333333,13.875 L7.46666667,13.875 L7.46666667,12.78125 Z M8,14.96875 C8.88373333,14.96875 9.6,14.2342969 9.6,13.328125 C9.6,12.4219531 8.88373333,11.6875 8,11.6875 C7.11626667,11.6875 6.4,12.4219531 6.4,13.328125 C6.4,14.2342969 7.11626667,14.96875 8,14.96875 L8,14.96875 Z M11.7333333,12.78125 L12.8,12.78125 L12.8,13.875 L11.7333333,13.875 L11.7333333,12.78125 Z M12.2666667,14.96875 C13.1504,14.96875 13.8666667,14.2342969 13.8666667,13.328125 C13.8666667,12.4219531 13.1504,11.6875 12.2666667,11.6875 C11.3829333,11.6875 10.6666667,12.4219531 10.6666667,13.328125 C10.6666667,14.2342969 11.3829333,14.96875 12.2666667,14.96875 L12.2666667,14.96875 Z M11.7333333,8.40625 L12.8,8.40625 L12.8,9.5 L11.7333333,9.5 L11.7333333,8.40625 Z M12.2666667,10.59375 C13.1504,10.59375 13.8666667,9.85929687 13.8666667,8.953125 C13.8666667,8.04695313 13.1504,7.3125 12.2666667,7.3125 C11.3829333,7.3125 10.6666667,8.04695313 10.6666667,8.953125 C10.6666667,9.85929687 11.3829333,10.59375 12.2666667,10.59375 L12.2666667,10.59375 Z" id="Fill-203"></path>
                </g>
            </g>
        </g>
    </g>
</svg>