<?xml version="1.0" encoding="UTF-8" standalone="no"?>
<svg width="11px" height="11px" viewBox="0 0 11 11" version="1.1" xmlns="http://www.w3.org/2000/svg" xmlns:xlink="http://www.w3.org/1999/xlink">
    <!-- Generator: Sketch 41.2 (35397) - http://www.bohemiancoding.com/sketch -->
    <title>Shape</title>
    <desc>Created with Sketch.</desc>
    <defs></defs>
    <g id="Dashboard-Elements-&amp;-Components" stroke="none" stroke-width="1" fill="none" fill-rule="evenodd">
        <g id="Analytics-Elements" transform="translate(-302.000000, -198.000000)" fill="#52CCA7">
            <path d="M314.185281,202.785281 L314.185281,202.785281 L313.685281,202.285281 L310.985281,199.585281 L310.185281,198.785281 C309.785281,198.385281 309.185281,198.385281 308.785281,198.785281 C308.385281,199.185281 308.385281,199.785281 308.785281,200.185281 L311.085281,202.485281 L301.485281,202.485281 C300.885281,202.485281 300.485281,202.885281 300.485281,203.485281 C300.485281,204.085281 300.885281,204.485281 301.485281,204.485281 L311.085281,204.485281 L308.785281,206.785281 C308.385281,207.185281 308.385281,207.785281 308.785281,208.185281 C309.185281,208.585281 309.785281,208.585281 310.185281,208.185281 L313.685281,204.685281 L314.185281,204.185281 L314.185281,204.185281 C314.385281,203.985281 314.485281,203.785281 314.485281,203.485281 C314.485281,203.185281 314.385281,202.985281 314.185281,202.785281 L314.185281,202.785281 Z" id="Shape" transform="translate(307.485281, 203.485281) rotate(-45.000000) translate(-307.485281, -203.485281) "></path>
        </g>
    </g>
</svg>